<svg id="10015.io" viewBox="0 0 480 480" xmlns="http://www.w3.org/2000/svg" xmlns:xlink="http://www.w3.org/1999/xlink" >
	<path fill="#474bff" d="M402.5,274Q448,308,392.5,309Q337,310,325,325Q313,340,304.5,376.5Q296,413,268,431Q240,449,212.5,429.5Q185,410,160.5,396.5Q136,383,147.5,341Q159,299,130.5,292Q102,285,54,262.5Q6,240,32.5,210.5Q59,181,65.5,149.5Q72,118,101,103.5Q130,89,160,88Q190,87,215,50Q240,13,258,70.5Q276,128,321,97.5Q366,67,392,89Q418,111,415,147.5Q412,184,384.5,212Q357,240,402.5,274Z" />
</svg>