<svg id="10015.io" viewBox="0 0 480 480" xmlns="http://www.w3.org/2000/svg" xmlns:xlink="http://www.w3.org/1999/xlink" >
	<path fill="#474bff" d="M373.5,263.5Q385,287,359,297.5Q333,308,332,336.5Q331,365,299.5,345.5Q268,326,254,361.5Q240,397,207,420Q174,443,169,394Q164,345,139.5,338Q115,331,65.5,322Q16,313,34,276.5Q52,240,65,213.5Q78,187,123.5,188Q169,189,159.5,152.5Q150,116,177,122Q204,128,222,117Q240,106,263.5,100.5Q287,95,298,120Q309,145,323,157Q337,169,373.5,177Q410,185,386,212.5Q362,240,373.5,263.5Z" />
</svg>