<svg id="10015.io" viewBox="0 0 480 480" xmlns="http://www.w3.org/2000/svg" xmlns:xlink="http://www.w3.org/1999/xlink" >
	<path fill="#474bff" d="M459.5,275Q456,310,438,340.5Q420,371,397,397.5Q374,424,341,436Q308,448,274,458Q240,468,203.5,466.5Q167,465,137.5,443Q108,421,82,397.5Q56,374,34,344Q12,314,9.5,277Q7,240,14,204.5Q21,169,42,140.5Q63,112,84.5,84Q106,56,138.5,42Q171,28,205.5,21.5Q240,15,275,19.5Q310,24,340.5,42Q371,60,395.5,84.5Q420,109,440,139Q460,169,461.5,204.5Q463,240,459.5,275Z" />
</svg>