<svg id="10015.io" viewBox="0 0 480 480" xmlns="http://www.w3.org/2000/svg" xmlns:xlink="http://www.w3.org/1999/xlink" >
	<path fill="#474bff" d="M407,261Q369,282,387,321Q405,360,360.5,352.5Q316,345,304.5,373.5Q293,402,266.5,383Q240,364,216.5,374Q193,384,179,363.5Q165,343,145.5,333Q126,323,122.5,301Q119,279,77,259.5Q35,240,35.5,207Q36,174,45,139.5Q54,105,99.5,107.5Q145,110,163.5,86Q182,62,211,69.5Q240,77,261,94Q282,111,325,87.5Q368,64,366,107Q364,150,370,173Q376,196,410.5,218Q445,240,407,261Z" />
</svg>