<svg id="visual" viewBox="0 0 1920 1080" width="1920" height="1080" xmlns="http://www.w3.org/2000/svg" xmlns:xlink="http://www.w3.org/1999/xlink" version="1.1"><path d="M0 426L40 439.8C80 453.7 160 481.3 240 504C320 526.7 400 544.3 480 547.2C560 550 640 538 720 551C800 564 880 602 960 608.7C1040 615.3 1120 590.7 1200 566.5C1280 542.3 1360 518.7 1440 493.7C1520 468.7 1600 442.3 1680 446.8C1760 451.3 1840 486.7 1880 504.3L1920 522L1920 1081L1880 1081C1840 1081 1760 1081 1680 1081C1600 1081 1520 1081 1440 1081C1360 1081 1280 1081 1200 1081C1120 1081 1040 1081 960 1081C880 1081 800 1081 720 1081C640 1081 560 1081 480 1081C400 1081 320 1081 240 1081C160 1081 80 1081 40 1081L0 1081Z" fill="#ff3728"></path><path d="M0 632L40 634C80 636 160 640 240 629.8C320 619.7 400 595.3 480 608.7C560 622 640 673 720 683.5C800 694 880 664 960 629C1040 594 1120 554 1200 558C1280 562 1360 610 1440 617.8C1520 625.7 1600 593.3 1680 603.2C1760 613 1840 665 1880 691L1920 717L1920 1081L1880 1081C1840 1081 1760 1081 1680 1081C1600 1081 1520 1081 1440 1081C1360 1081 1280 1081 1200 1081C1120 1081 1040 1081 960 1081C880 1081 800 1081 720 1081C640 1081 560 1081 480 1081C400 1081 320 1081 240 1081C160 1081 80 1081 40 1081L0 1081Z" fill="#f11742"></path><path d="M0 499L40 508.8C80 518.7 160 538.3 240 567.5C320 596.7 400 635.3 480 661C560 686.7 640 699.3 720 703.5C800 707.7 880 703.3 960 695.2C1040 687 1120 675 1200 673.7C1280 672.3 1360 681.7 1440 683.8C1520 686 1600 681 1680 660.2C1760 639.3 1840 602.7 1880 584.3L1920 566L1920 1081L1880 1081C1840 1081 1760 1081 1680 1081C1600 1081 1520 1081 1440 1081C1360 1081 1280 1081 1200 1081C1120 1081 1040 1081 960 1081C880 1081 800 1081 720 1081C640 1081 560 1081 480 1081C400 1081 320 1081 240 1081C160 1081 80 1081 40 1081L0 1081Z" fill="#dd0056"></path><path d="M0 650L40 655.8C80 661.7 160 673.3 240 689.5C320 705.7 400 726.3 480 718.8C560 711.3 640 675.7 720 679C800 682.3 880 724.7 960 746.5C1040 768.3 1120 769.7 1200 755.5C1280 741.3 1360 711.7 1440 713.5C1520 715.3 1600 748.7 1680 743.8C1760 739 1840 696 1880 674.5L1920 653L1920 1081L1880 1081C1840 1081 1760 1081 1680 1081C1600 1081 1520 1081 1440 1081C1360 1081 1280 1081 1200 1081C1120 1081 1040 1081 960 1081C880 1081 800 1081 720 1081C640 1081 560 1081 480 1081C400 1081 320 1081 240 1081C160 1081 80 1081 40 1081L0 1081Z" fill="#c40164"></path><path d="M0 802L40 797.5C80 793 160 784 240 755C320 726 400 677 480 682.8C560 688.7 640 749.3 720 755.2C800 761 880 712 960 686.2C1040 660.3 1120 657.7 1200 656.8C1280 656 1360 657 1440 654.7C1520 652.3 1600 646.7 1680 659.7C1760 672.7 1840 704.3 1880 720.2L1920 736L1920 1081L1880 1081C1840 1081 1760 1081 1680 1081C1600 1081 1520 1081 1440 1081C1360 1081 1280 1081 1200 1081C1120 1081 1040 1081 960 1081C880 1081 800 1081 720 1081C640 1081 560 1081 480 1081C400 1081 320 1081 240 1081C160 1081 80 1081 40 1081L0 1081Z" fill="#a7166d"></path><path d="M0 656L40 658C80 660 160 664 240 692.7C320 721.3 400 774.7 480 793.7C560 812.7 640 797.3 720 774.8C800 752.3 880 722.7 960 733.3C1040 744 1120 795 1200 802.2C1280 809.3 1360 772.7 1440 747.2C1520 721.7 1600 707.3 1680 699C1760 690.7 1840 688.3 1880 687.2L1920 686L1920 1081L1880 1081C1840 1081 1760 1081 1680 1081C1600 1081 1520 1081 1440 1081C1360 1081 1280 1081 1200 1081C1120 1081 1040 1081 960 1081C880 1081 800 1081 720 1081C640 1081 560 1081 480 1081C400 1081 320 1081 240 1081C160 1081 80 1081 40 1081L0 1081Z" fill="#872271"></path><path d="M0 733L40 737.2C80 741.3 160 749.7 240 759.7C320 769.7 400 781.3 480 775.3C560 769.3 640 745.7 720 734.5C800 723.3 880 724.7 960 736.2C1040 747.7 1120 769.3 1200 788.2C1280 807 1360 823 1440 833.8C1520 844.7 1600 850.3 1680 837.2C1760 824 1840 792 1880 776L1920 760L1920 1081L1880 1081C1840 1081 1760 1081 1680 1081C1600 1081 1520 1081 1440 1081C1360 1081 1280 1081 1200 1081C1120 1081 1040 1081 960 1081C880 1081 800 1081 720 1081C640 1081 560 1081 480 1081C400 1081 320 1081 240 1081C160 1081 80 1081 40 1081L0 1081Z" fill="#67286e"></path><path d="M0 902L40 894.7C80 887.3 160 872.7 240 857.8C320 843 400 828 480 824.3C560 820.7 640 828.3 720 829C800 829.7 880 823.3 960 814.8C1040 806.3 1120 795.7 1200 803.8C1280 812 1360 839 1440 843.8C1520 848.7 1600 831.3 1680 825.7C1760 820 1840 826 1880 829L1920 832L1920 1081L1880 1081C1840 1081 1760 1081 1680 1081C1600 1081 1520 1081 1440 1081C1360 1081 1280 1081 1200 1081C1120 1081 1040 1081 960 1081C880 1081 800 1081 720 1081C640 1081 560 1081 480 1081C400 1081 320 1081 240 1081C160 1081 80 1081 40 1081L0 1081Z" fill="#482a65"></path><path d="M0 856L40 862C80 868 160 880 240 879.2C320 878.3 400 864.7 480 852.8C560 841 640 831 720 832.7C800 834.3 880 847.7 960 849.8C1040 852 1120 843 1200 847C1280 851 1360 868 1440 881.7C1520 895.3 1600 905.7 1680 912.7C1760 919.7 1840 923.3 1880 925.2L1920 927L1920 1081L1880 1081C1840 1081 1760 1081 1680 1081C1600 1081 1520 1081 1440 1081C1360 1081 1280 1081 1200 1081C1120 1081 1040 1081 960 1081C880 1081 800 1081 720 1081C640 1081 560 1081 480 1081C400 1081 320 1081 240 1081C160 1081 80 1081 40 1081L0 1081Z" fill="#2c2858"></path><path d="M0 961L40 945.7C80 930.3 160 899.7 240 894.5C320 889.3 400 909.7 480 918.5C560 927.3 640 924.7 720 923.5C800 922.3 880 922.7 960 923.8C1040 925 1120 927 1200 924.7C1280 922.3 1360 915.7 1440 906.3C1520 897 1600 885 1680 887.7C1760 890.3 1840 907.7 1880 916.3L1920 925L1920 1081L1880 1081C1840 1081 1760 1081 1680 1081C1600 1081 1520 1081 1440 1081C1360 1081 1280 1081 1200 1081C1120 1081 1040 1081 960 1081C880 1081 800 1081 720 1081C640 1081 560 1081 480 1081C400 1081 320 1081 240 1081C160 1081 80 1081 40 1081L0 1081Z" fill="#142247"></path><path d="M0 940L40 945.7C80 951.3 160 962.7 240 962.5C320 962.3 400 950.7 480 947.7C560 944.7 640 950.3 720 958.3C800 966.3 880 976.7 960 970.8C1040 965 1120 943 1200 933.8C1280 924.7 1360 928.3 1440 939.8C1520 951.3 1600 970.7 1680 976C1760 981.3 1840 972.7 1880 968.3L1920 964L1920 1081L1880 1081C1840 1081 1760 1081 1680 1081C1600 1081 1520 1081 1440 1081C1360 1081 1280 1081 1200 1081C1120 1081 1040 1081 960 1081C880 1081 800 1081 720 1081C640 1081 560 1081 480 1081C400 1081 320 1081 240 1081C160 1081 80 1081 40 1081L0 1081Z" fill="#051b34"></path><path d="M0 1008L40 1008C80 1008 160 1008 240 1007C320 1006 400 1004 480 998.8C560 993.7 640 985.3 720 983.8C800 982.3 880 987.7 960 990.3C1040 993 1120 993 1200 992.2C1280 991.3 1360 989.7 1440 988.2C1520 986.7 1600 985.3 1680 987.8C1760 990.3 1840 996.7 1880 999.8L1920 1003L1920 1081L1880 1081C1840 1081 1760 1081 1680 1081C1600 1081 1520 1081 1440 1081C1360 1081 1280 1081 1200 1081C1120 1081 1040 1081 960 1081C880 1081 800 1081 720 1081C640 1081 560 1081 480 1081C400 1081 320 1081 240 1081C160 1081 80 1081 40 1081L0 1081Z" fill="#001220"></path></svg>