<svg id="visual" viewBox="0 0 1920 1080" width="1920" height="1080" xmlns="http://www.w3.org/2000/svg" xmlns:xlink="http://www.w3.org/1999/xlink" version="1.1"><path d="M0 642L40 619C80 596 160 550 240 549.5C320 549 400 594 480 581C560 568 640 497 720 492C800 487 880 548 960 546.7C1040 545.3 1120 481.7 1200 494.2C1280 506.7 1360 595.3 1440 610.2C1520 625 1600 566 1680 525.8C1760 485.7 1840 464.3 1880 453.7L1920 443L1920 0L1880 0C1840 0 1760 0 1680 0C1600 0 1520 0 1440 0C1360 0 1280 0 1200 0C1120 0 1040 0 960 0C880 0 800 0 720 0C640 0 560 0 480 0C400 0 320 0 240 0C160 0 80 0 40 0L0 0Z" fill="#ff3728"></path><path d="M0 534L40 512.3C80 490.7 160 447.3 240 416.7C320 386 400 368 480 388.8C560 409.7 640 469.3 720 513.8C800 558.3 880 587.7 960 586.8C1040 586 1120 555 1200 556.2C1280 557.3 1360 590.7 1440 576.5C1520 562.3 1600 500.7 1680 481.3C1760 462 1840 485 1880 496.5L1920 508L1920 0L1880 0C1840 0 1760 0 1680 0C1600 0 1520 0 1440 0C1360 0 1280 0 1200 0C1120 0 1040 0 960 0C880 0 800 0 720 0C640 0 560 0 480 0C400 0 320 0 240 0C160 0 80 0 40 0L0 0Z" fill="#f11742"></path><path d="M0 546L40 524.5C80 503 160 460 240 439.7C320 419.3 400 421.7 480 442C560 462.3 640 500.7 720 523.8C800 547 880 555 960 541.7C1040 528.3 1120 493.7 1200 459.5C1280 425.3 1360 391.7 1440 381.3C1520 371 1600 384 1680 414.3C1760 444.7 1840 492.3 1880 516.2L1920 540L1920 0L1880 0C1840 0 1760 0 1680 0C1600 0 1520 0 1440 0C1360 0 1280 0 1200 0C1120 0 1040 0 960 0C880 0 800 0 720 0C640 0 560 0 480 0C400 0 320 0 240 0C160 0 80 0 40 0L0 0Z" fill="#dd0056"></path><path d="M0 349L40 348.8C80 348.7 160 348.3 240 364.5C320 380.7 400 413.3 480 432.3C560 451.3 640 456.7 720 432.7C800 408.7 880 355.3 960 337C1040 318.7 1120 335.3 1200 340.5C1280 345.7 1360 339.3 1440 348.2C1520 357 1600 381 1680 376.2C1760 371.3 1840 337.7 1880 320.8L1920 304L1920 0L1880 0C1840 0 1760 0 1680 0C1600 0 1520 0 1440 0C1360 0 1280 0 1200 0C1120 0 1040 0 960 0C880 0 800 0 720 0C640 0 560 0 480 0C400 0 320 0 240 0C160 0 80 0 40 0L0 0Z" fill="#c40164"></path><path d="M0 463L40 443.8C80 424.7 160 386.3 240 383.3C320 380.3 400 412.7 480 407C560 401.3 640 357.7 720 348.8C800 340 880 366 960 393.7C1040 421.3 1120 450.7 1200 443.7C1280 436.7 1360 393.3 1440 365.2C1520 337 1600 324 1680 328.2C1760 332.3 1840 353.7 1880 364.3L1920 375L1920 0L1880 0C1840 0 1760 0 1680 0C1600 0 1520 0 1440 0C1360 0 1280 0 1200 0C1120 0 1040 0 960 0C880 0 800 0 720 0C640 0 560 0 480 0C400 0 320 0 240 0C160 0 80 0 40 0L0 0Z" fill="#a7166d"></path><path d="M0 348L40 335.8C80 323.7 160 299.3 240 282.8C320 266.3 400 257.7 480 272.5C560 287.3 640 325.7 720 330.3C800 335 880 306 960 287.3C1040 268.7 1120 260.3 1200 262.7C1280 265 1360 278 1440 298.2C1520 318.3 1600 345.7 1680 366.2C1760 386.7 1840 400.3 1880 407.2L1920 414L1920 0L1880 0C1840 0 1760 0 1680 0C1600 0 1520 0 1440 0C1360 0 1280 0 1200 0C1120 0 1040 0 960 0C880 0 800 0 720 0C640 0 560 0 480 0C400 0 320 0 240 0C160 0 80 0 40 0L0 0Z" fill="#872271"></path><path d="M0 324L40 327.5C80 331 160 338 240 319.3C320 300.7 400 256.3 480 236C560 215.7 640 219.3 720 236.8C800 254.3 880 285.7 960 289.8C1040 294 1120 271 1200 268.5C1280 266 1360 284 1440 297.5C1520 311 1600 320 1680 314.7C1760 309.3 1840 289.7 1880 279.8L1920 270L1920 0L1880 0C1840 0 1760 0 1680 0C1600 0 1520 0 1440 0C1360 0 1280 0 1200 0C1120 0 1040 0 960 0C880 0 800 0 720 0C640 0 560 0 480 0C400 0 320 0 240 0C160 0 80 0 40 0L0 0Z" fill="#67286e"></path><path d="M0 250L40 239C80 228 160 206 240 205.7C320 205.3 400 226.7 480 238.5C560 250.3 640 252.7 720 243.5C800 234.3 880 213.7 960 218.7C1040 223.7 1120 254.3 1200 269.3C1280 284.3 1360 283.7 1440 280.2C1520 276.7 1600 270.3 1680 255.8C1760 241.3 1840 218.7 1880 207.3L1920 196L1920 0L1880 0C1840 0 1760 0 1680 0C1600 0 1520 0 1440 0C1360 0 1280 0 1200 0C1120 0 1040 0 960 0C880 0 800 0 720 0C640 0 560 0 480 0C400 0 320 0 240 0C160 0 80 0 40 0L0 0Z" fill="#482a65"></path><path d="M0 177L40 183.5C80 190 160 203 240 211C320 219 400 222 480 211.8C560 201.7 640 178.3 720 165.8C800 153.3 880 151.7 960 164.8C1040 178 1120 206 1200 213.7C1280 221.3 1360 208.7 1440 202.8C1520 197 1600 198 1680 209C1760 220 1840 241 1880 251.5L1920 262L1920 0L1880 0C1840 0 1760 0 1680 0C1600 0 1520 0 1440 0C1360 0 1280 0 1200 0C1120 0 1040 0 960 0C880 0 800 0 720 0C640 0 560 0 480 0C400 0 320 0 240 0C160 0 80 0 40 0L0 0Z" fill="#2c2858"></path><path d="M0 209L40 200C80 191 160 173 240 165.3C320 157.7 400 160.3 480 165.5C560 170.7 640 178.3 720 184.2C800 190 880 194 960 197.7C1040 201.3 1120 204.7 1200 202.5C1280 200.3 1360 192.7 1440 180.8C1520 169 1600 153 1680 157.5C1760 162 1840 187 1880 199.5L1920 212L1920 0L1880 0C1840 0 1760 0 1680 0C1600 0 1520 0 1440 0C1360 0 1280 0 1200 0C1120 0 1040 0 960 0C880 0 800 0 720 0C640 0 560 0 480 0C400 0 320 0 240 0C160 0 80 0 40 0L0 0Z" fill="#142247"></path><path d="M0 148L40 148.8C80 149.7 160 151.3 240 149.7C320 148 400 143 480 141C560 139 640 140 720 136.2C800 132.3 880 123.7 960 122.3C1040 121 1120 127 1200 130.8C1280 134.7 1360 136.3 1440 136C1520 135.7 1600 133.3 1680 128.2C1760 123 1840 115 1880 111L1920 107L1920 0L1880 0C1840 0 1760 0 1680 0C1600 0 1520 0 1440 0C1360 0 1280 0 1200 0C1120 0 1040 0 960 0C880 0 800 0 720 0C640 0 560 0 480 0C400 0 320 0 240 0C160 0 80 0 40 0L0 0Z" fill="#051b34"></path><path d="M0 93L40 88C80 83 160 73 240 73.7C320 74.3 400 85.7 480 89C560 92.3 640 87.7 720 83.3C800 79 880 75 960 72C1040 69 1120 67 1200 68.5C1280 70 1360 75 1440 79C1520 83 1600 86 1680 83.2C1760 80.3 1840 71.7 1880 67.3L1920 63L1920 0L1880 0C1840 0 1760 0 1680 0C1600 0 1520 0 1440 0C1360 0 1280 0 1200 0C1120 0 1040 0 960 0C880 0 800 0 720 0C640 0 560 0 480 0C400 0 320 0 240 0C160 0 80 0 40 0L0 0Z" fill="#001220"></path></svg>